<mxfile host="app.diagrams.net" modified="2022-10-13T08:37:15.949Z" agent="5.0 (Windows NT 10.0; Win64; x64) AppleWebKit/537.36 (KHTML, like Gecko) Chrome/106.0.0.0 Safari/537.36 Edg/106.0.1370.37" etag="no4cdJwe1MBFaRrgTLtJ" version="20.4.0" type="github">
  <diagram id="1T27g-t3n0TKRR1sPoDJ" name="第 1 页">
    <mxGraphModel dx="1863" dy="592" grid="1" gridSize="10" guides="1" tooltips="1" connect="1" arrows="1" fold="1" page="1" pageScale="1" pageWidth="827" pageHeight="1169" math="0" shadow="0">
      <root>
        <mxCell id="0" />
        <mxCell id="1" parent="0" />
        <mxCell id="6tSdoASQQvIuinm9NfsN-1" value="" style="rounded=0;whiteSpace=wrap;html=1;" vertex="1" parent="1">
          <mxGeometry x="-470" y="80" width="1210" height="190" as="geometry" />
        </mxCell>
        <mxCell id="6tSdoASQQvIuinm9NfsN-2" value="&lt;font style=&quot;font-size: 20px;&quot;&gt;状态栏&lt;/font&gt;" style="rounded=0;whiteSpace=wrap;html=1;" vertex="1" parent="1">
          <mxGeometry x="-470" y="920" width="1210" height="30" as="geometry" />
        </mxCell>
        <mxCell id="6tSdoASQQvIuinm9NfsN-3" value="&lt;font style=&quot;font-size: 24px;&quot;&gt;组件库&lt;/font&gt;" style="rounded=0;whiteSpace=wrap;html=1;" vertex="1" parent="1">
          <mxGeometry x="-470" y="270" width="250" height="340" as="geometry" />
        </mxCell>
        <mxCell id="6tSdoASQQvIuinm9NfsN-4" value="&lt;font style=&quot;font-size: 24px;&quot;&gt;属性面板&lt;/font&gt;" style="rounded=0;whiteSpace=wrap;html=1;" vertex="1" parent="1">
          <mxGeometry x="510" y="270" width="230" height="650" as="geometry" />
        </mxCell>
        <mxCell id="6tSdoASQQvIuinm9NfsN-5" value="" style="rounded=0;whiteSpace=wrap;html=1;" vertex="1" parent="1">
          <mxGeometry x="-470" y="50" width="1210" height="30" as="geometry" />
        </mxCell>
        <mxCell id="6tSdoASQQvIuinm9NfsN-6" value="文件" style="text;html=1;strokeColor=none;fillColor=none;align=center;verticalAlign=middle;whiteSpace=wrap;rounded=0;" vertex="1" parent="1">
          <mxGeometry x="-470" y="50" width="60" height="30" as="geometry" />
        </mxCell>
        <mxCell id="6tSdoASQQvIuinm9NfsN-7" value="编辑" style="text;html=1;strokeColor=none;fillColor=none;align=center;verticalAlign=middle;whiteSpace=wrap;rounded=0;" vertex="1" parent="1">
          <mxGeometry x="-410" y="50" width="60" height="30" as="geometry" />
        </mxCell>
        <mxCell id="6tSdoASQQvIuinm9NfsN-8" value="选项" style="text;html=1;strokeColor=none;fillColor=none;align=center;verticalAlign=middle;whiteSpace=wrap;rounded=0;" vertex="1" parent="1">
          <mxGeometry x="-350" y="50" width="60" height="30" as="geometry" />
        </mxCell>
        <mxCell id="6tSdoASQQvIuinm9NfsN-9" value="账户" style="text;html=1;strokeColor=none;fillColor=none;align=center;verticalAlign=middle;whiteSpace=wrap;rounded=0;" vertex="1" parent="1">
          <mxGeometry x="-290" y="50" width="60" height="30" as="geometry" />
        </mxCell>
        <mxCell id="6tSdoASQQvIuinm9NfsN-10" value="新建" style="rounded=0;whiteSpace=wrap;html=1;" vertex="1" parent="1">
          <mxGeometry x="-352" y="138" width="50" height="50" as="geometry" />
        </mxCell>
        <mxCell id="6tSdoASQQvIuinm9NfsN-11" value="导入" style="rounded=0;whiteSpace=wrap;html=1;" vertex="1" parent="1">
          <mxGeometry x="-292" y="138" width="50" height="50" as="geometry" />
        </mxCell>
        <mxCell id="6tSdoASQQvIuinm9NfsN-12" value="另存为" style="rounded=0;whiteSpace=wrap;html=1;" vertex="1" parent="1">
          <mxGeometry x="-292" y="198" width="50" height="50" as="geometry" />
        </mxCell>
        <mxCell id="6tSdoASQQvIuinm9NfsN-13" value="储存" style="rounded=0;whiteSpace=wrap;html=1;" vertex="1" parent="1">
          <mxGeometry x="-352" y="198" width="50" height="50" as="geometry" />
        </mxCell>
        <mxCell id="6tSdoASQQvIuinm9NfsN-14" value="" style="line;strokeWidth=2;direction=south;html=1;strokeColor=#CCCCCC;" vertex="1" parent="1">
          <mxGeometry x="-116" y="118" width="10" height="140" as="geometry" />
        </mxCell>
        <mxCell id="6tSdoASQQvIuinm9NfsN-16" value="组件脚本编辑" style="rounded=0;whiteSpace=wrap;html=1;" vertex="1" parent="1">
          <mxGeometry x="67" y="149.5" width="77" height="77" as="geometry" />
        </mxCell>
        <mxCell id="6tSdoASQQvIuinm9NfsN-17" value="自定义属性" style="rounded=0;whiteSpace=wrap;html=1;" vertex="1" parent="1">
          <mxGeometry x="177" y="149.5" width="77" height="77" as="geometry" />
        </mxCell>
        <mxCell id="6tSdoASQQvIuinm9NfsN-20" value="&lt;font style=&quot;font-size: 24px;&quot;&gt;工作流编辑器&lt;/font&gt;" style="rounded=0;whiteSpace=wrap;html=1;fontSize=30;fillColor=#FFFFFF;" vertex="1" parent="1">
          <mxGeometry x="-220" y="270" width="730" height="650" as="geometry" />
        </mxCell>
        <mxCell id="6tSdoASQQvIuinm9NfsN-21" value="" style="group;glass=0;rounded=1;" vertex="1" connectable="0" parent="1">
          <mxGeometry x="-85" y="150" width="116" height="27" as="geometry" />
        </mxCell>
        <mxCell id="6tSdoASQQvIuinm9NfsN-18" value="数据库配置" style="rounded=0;whiteSpace=wrap;html=1;sketch=0;glass=0;" vertex="1" parent="6tSdoASQQvIuinm9NfsN-21">
          <mxGeometry width="116" height="27" as="geometry" />
        </mxCell>
        <mxCell id="6tSdoASQQvIuinm9NfsN-19" value="" style="verticalLabelPosition=bottom;verticalAlign=top;html=1;shape=mxgraph.basic.acute_triangle;dx=0.5;rotation=-180;fillColor=#000000;" vertex="1" parent="6tSdoASQQvIuinm9NfsN-21">
          <mxGeometry x="93.9047619047619" y="10" width="6.996825396825398" height="7.01" as="geometry" />
        </mxCell>
        <mxCell id="6tSdoASQQvIuinm9NfsN-22" value="" style="line;strokeWidth=2;direction=south;html=1;strokeColor=#CCCCCC;" vertex="1" parent="1">
          <mxGeometry x="297" y="118" width="10" height="140" as="geometry" />
        </mxCell>
        <mxCell id="6tSdoASQQvIuinm9NfsN-23" value="" style="rounded=0;whiteSpace=wrap;html=1;shadow=1;" vertex="1" parent="1">
          <mxGeometry x="-350" y="80" width="1090" height="30" as="geometry" />
        </mxCell>
        <mxCell id="6tSdoASQQvIuinm9NfsN-24" value="&lt;font style=&quot;font-size: 24px;&quot;&gt;层级结构&lt;/font&gt;" style="rounded=0;whiteSpace=wrap;html=1;" vertex="1" parent="1">
          <mxGeometry x="-470" y="610" width="250" height="310" as="geometry" />
        </mxCell>
        <mxCell id="6tSdoASQQvIuinm9NfsN-25" value="解决方案配置" style="text;html=1;strokeColor=none;fillColor=none;align=center;verticalAlign=middle;whiteSpace=wrap;rounded=0;shadow=1;" vertex="1" parent="1">
          <mxGeometry x="-448" y="84" width="74" height="30" as="geometry" />
        </mxCell>
        <mxCell id="6tSdoASQQvIuinm9NfsN-27" value="数据看板" style="text;html=1;strokeColor=none;fillColor=none;align=center;verticalAlign=middle;whiteSpace=wrap;rounded=0;shadow=1;" vertex="1" parent="1">
          <mxGeometry x="-332" y="80" width="74" height="30" as="geometry" />
        </mxCell>
        <mxCell id="6tSdoASQQvIuinm9NfsN-28" value="新建&lt;br&gt;解决方案" style="rounded=0;whiteSpace=wrap;html=1;" vertex="1" parent="1">
          <mxGeometry x="-449.5" y="149.5" width="77" height="77" as="geometry" />
        </mxCell>
        <mxCell id="6tSdoASQQvIuinm9NfsN-33" value="最近项目" style="rounded=0;whiteSpace=wrap;html=1;" vertex="1" parent="1">
          <mxGeometry x="-220" y="149.5" width="77" height="77" as="geometry" />
        </mxCell>
        <mxCell id="6tSdoASQQvIuinm9NfsN-37" value="报表统计" style="rounded=0;whiteSpace=wrap;html=1;" vertex="1" parent="1">
          <mxGeometry x="510" y="143" width="77" height="77" as="geometry" />
        </mxCell>
        <mxCell id="6tSdoASQQvIuinm9NfsN-38" value="项目管理" style="text;html=1;strokeColor=none;fillColor=none;align=center;verticalAlign=middle;whiteSpace=wrap;rounded=0;shadow=1;glass=0;sketch=0;" vertex="1" parent="1">
          <mxGeometry x="-330" y="245" width="60" height="30" as="geometry" />
        </mxCell>
        <mxCell id="6tSdoASQQvIuinm9NfsN-39" value="编辑" style="text;html=1;strokeColor=none;fillColor=none;align=center;verticalAlign=middle;whiteSpace=wrap;rounded=0;shadow=1;glass=0;sketch=0;" vertex="1" parent="1">
          <mxGeometry x="84" y="240" width="60" height="30" as="geometry" />
        </mxCell>
        <mxCell id="6tSdoASQQvIuinm9NfsN-40" value="模拟" style="text;html=1;strokeColor=none;fillColor=none;align=center;verticalAlign=middle;whiteSpace=wrap;rounded=0;shadow=1;glass=0;sketch=0;" vertex="1" parent="1">
          <mxGeometry x="470" y="240" width="60" height="30" as="geometry" />
        </mxCell>
        <mxCell id="6tSdoASQQvIuinm9NfsN-44" value="" style="group;glass=0;rounded=1;" vertex="1" connectable="0" parent="1">
          <mxGeometry x="-85" y="200" width="126" height="27" as="geometry" />
        </mxCell>
        <mxCell id="6tSdoASQQvIuinm9NfsN-45" value="传感器套件配置" style="rounded=0;whiteSpace=wrap;html=1;sketch=0;glass=0;" vertex="1" parent="6tSdoASQQvIuinm9NfsN-44">
          <mxGeometry width="126" height="27" as="geometry" />
        </mxCell>
        <mxCell id="6tSdoASQQvIuinm9NfsN-46" value="" style="verticalLabelPosition=bottom;verticalAlign=top;html=1;shape=mxgraph.basic.acute_triangle;dx=0.5;rotation=-180;fillColor=#000000;" vertex="1" parent="6tSdoASQQvIuinm9NfsN-44">
          <mxGeometry x="109.99999999999997" y="10" width="7.6000000000000005" height="7.01" as="geometry" />
        </mxCell>
      </root>
    </mxGraphModel>
  </diagram>
</mxfile>
